<?xml version="1.0" standalone="no"?>
<!DOCTYPE svg PUBLIC "-//W3C//DTD SVG 20010904//EN"
 "http://www.w3.org/TR/2001/REC-SVG-20010904/DTD/svg10.dtd">
<svg version="1.0" xmlns="http://www.w3.org/2000/svg"
 width="411.000000pt" height="411.000000pt" viewBox="0 0 411.000000 411.000000"
 preserveAspectRatio="xMidYMid meet">
<metadata>
Created by potrace 1.14, written by Peter Selinger 2001-2017
</metadata>
<g transform="translate(0.000000,411.000000) scale(0.100000,-0.100000)"
fill="#000000" stroke="none">
<path d="M2210 3908 c-67 -21 -200 -27 -445 -19 -115 4 -168 -9 -240 -59 -66
-45 -107 -114 -129 -212 -4 -16 -12 -28 -20 -28 -24 0 -191 -111 -244 -163
-31 -30 -67 -79 -85 -117 -30 -60 -32 -72 -32 -165 0 -84 4 -107 22 -142 29
-54 66 -79 144 -99 35 -9 76 -23 92 -30 35 -18 86 -98 123 -192 39 -97 115
-196 192 -249 85 -58 151 -76 264 -71 l90 3 -6 -37 c-11 -67 -37 -132 -72
-177 -39 -50 -40 -54 -19 -71 25 -21 107 -7 147 24 l36 26 6 -22 c3 -13 6 -40
6 -60 0 -67 43 -63 83 9 l25 47 7 -38 c11 -55 -1 -201 -20 -266 -9 -30 -29
-102 -45 -160 -20 -77 -30 -100 -35 -85 -4 11 -25 56 -46 100 -72 150 -188
268 -320 323 -83 34 -196 57 -234 48 -22 -6 -25 -12 -25 -54 0 -73 28 -227 56
-311 53 -157 144 -267 255 -307 56 -20 178 -20 244 0 28 9 50 16 50 16 0 0 -4
-57 -9 -127 -16 -211 14 -465 75 -653 47 -141 179 -386 248 -458 27 -27 62
-28 118 -3 89 41 95 121 15 235 -95 136 -178 322 -220 491 -47 190 -54 255
-50 441 5 184 12 220 50 261 21 22 21 22 46 3 14 -11 47 -27 75 -35 147 -44
283 9 457 176 83 79 162 135 206 144 40 9 74 26 74 38 0 34 -172 148 -273 182
-83 27 -203 34 -287 14 -74 -17 -168 -69 -209 -116 l-39 -43 -5 122 c-3 68 -9
136 -13 152 -7 28 -6 28 27 20 19 -5 59 -9 89 -9 48 0 55 3 58 21 2 16 -8 28
-40 48 l-43 26 65 -6 c53 -5 68 -3 79 10 18 22 6 34 -73 76 -36 18 -77 46 -91
60 l-26 27 46 28 c68 40 179 148 231 226 108 163 198 429 211 623 l6 91 -33
32 c-18 18 -51 38 -73 46 l-40 13 2 66 c2 60 0 69 -26 98 -22 24 -39 33 -74
37 -44 5 -46 7 -59 50 -7 25 -27 62 -44 81 -63 72 -154 88 -276 50z"/>
</g>
</svg>
